# xmcd CD database file
#
# Track frame offsets:
#	150
#	17461
#	36525
#	49780
#	67308
#	81701
#	97882
#	110867
#	124813
#	139674
#	153156
#	169770
#	188828
#	205418
#	221263
#
# Disc length: 3114 seconds
#
# Revision: 2
# Processed by: cddbd v1.5.2PL0 Copyright (c) Steve Scherf et al.
# Submitted via: CDex 1.70beta2
#
DISCID=dc0c280f
DTITLE=Kid Ory - The Ultimate Jazz Archive Set 09
DYEAR=1948
DGENRE=Jazz
TTITLE0=Panama Rag
TTITLE1=Sister Kate
TTITLE2=Mahogany Hall Stomp
TTITLE3=Margie
TTITLE4=Chinatown, My Chinatown
TTITLE5=Do You Know What It Means, To Miss New Orleans
TTITLE6=Sugar Foot Stomp
TTITLE7=Black And Blue
TTITLE8=Oh! Didn't He Ramble
TTITLE9=At The Jazz Band Ball
TTITLE10=High Society
TTITLE11=Sweet Georgia Brown
TTITLE12=San
TTITLE13=Shake That Thing
TTITLE14=Ory's Boogie
EXTD=YEAR: 1948
EXTT0=
EXTT1=
EXTT2=
EXTT3=
EXTT4=
EXTT5=
EXTT6=
EXTT7=
EXTT8=
EXTT9=
EXTT10=
EXTT11=
EXTT12=
EXTT13=
EXTT14=
PLAYORDER=
